<svg xmlns="http://www.w3.org/2000/svg" xmlns:xlink="http://www.w3.org/1999/xlink" version="1.1" x="0px" y="0px" viewBox="0 0 100 100" enable-background="new 0 0 100 100" xml:space="preserve"><g><path d="M17.257,43.44C7.741,43.44,0,51.182,0,60.698c0,9.516,7.741,17.257,17.257,17.257s17.258-7.741,17.258-17.257   C34.515,51.182,26.773,43.44,17.257,43.44z M17.257,73.402c-7.006,0-12.705-5.698-12.705-12.704s5.699-12.706,12.705-12.706   s12.705,5.7,12.705,12.706S24.263,73.402,17.257,73.402z"></path><path d="M82.742,43.44c-9.516,0-17.257,7.742-17.257,17.258c0,9.516,7.741,17.257,17.257,17.257S100,70.214,100,60.698   C100,51.182,92.258,43.44,82.742,43.44z M82.742,73.402c-7.006,0-12.704-5.698-12.704-12.704s5.698-12.706,12.704-12.706   s12.705,5.7,12.705,12.706S89.748,73.402,82.742,73.402z"></path><path d="M3.884,40.78h21.91c1.257,0,2.276-1.02,2.276-2.276c0-1.257-1.02-2.276-2.276-2.276H3.884   c-1.257,0-2.276,1.019-2.276,2.276C1.607,39.76,2.627,40.78,3.884,40.78z"></path><path d="M74.407,39.371c0.382-0.147,0.701-0.387,0.944-0.685c0.121-0.149,0.223-0.314,0.303-0.488   c-0.001-0.002-0.001-0.003,0.003-0.004c0-0.001,0.001-0.002,0.001-0.003c-0.001-0.001,0.001-0.002,0.001-0.003c0,0,0,0,0,0   c0.132-0.292,0.203-0.611,0.204-0.938c0-0.24-0.039-0.485-0.119-0.725c-0.001-0.001-0.001-0.002-0.001-0.003   c-0.001,0-0.001-0.002-0.001-0.003v0c-0.002-0.002,0.001-0.002-0.002-0.004c0-0.001-0.001-0.002-0.001-0.003   c0-0.002-0.001-0.004-0.001-0.003c0-0.001,0-0.001,0-0.003c-0.003,0,0-0.001-0.003-0.003c0,0,0-0.001,0-0.001   c0.001,0,0-0.002-0.001-0.003c0-0.001,0-0.001-0.001-0.002c0-0.001-0.001-0.002-0.001-0.003s-0.001-0.002-0.001-0.003   c0-0.003-0.001-0.003-0.001-0.003c0-0.001,0-0.001-0.001-0.002c0,0-0.002-0.002-0.002-0.003c0-0.002-0.001-0.003-0.001-0.004   l-0.84-2.322c2.013-1.168,4.07-3.17,4.07-6.034c0-1.324-0.526-2.524-1.52-3.471c-2.959-2.818-9.676-2.638-10.995-2.573   c-1.255,0.062-2.221,1.128-2.161,2.383c0.062,1.255,1.125,2.208,2.384,2.164c2.396-0.108,6.485,0.229,7.635,1.324   c0.104,0.1,0.104,0.129,0.104,0.173c0,1.235-2.109,2.352-3.065,2.669c-0.018,0.005-0.037,0.012-0.055,0.018   c-0.021,0.007-0.041,0.015-0.062,0.023c-0.003,0.001-0.005,0.003-0.009,0.004c-0.003,0.001-0.007,0.002-0.01,0.003   c-7.423,2.9-13.212,8.856-15.877,16.323c-3.301,9.023-9.656,11.404-12.582,12.031l-9.567-24.501   c-0.457-1.171-1.776-1.751-2.948-1.292c-1.171,0.457-1.75,1.777-1.292,2.948l11.667,29.877c0.334,0.856,1.149,1.427,2.068,1.447   c0.019,0.002,0.055,0.002,0.104,0.002c1.332,0,13.17-0.41,18.387-14.672C63.389,46.758,68.217,41.792,74.407,39.371z"></path><path d="M35.895,30.918c1.257,0,2.276-1.02,2.276-2.276c0-1.257-1.019-2.276-2.276-2.276c-8.439,0-12.022-0.215-13.479-2.369   c-0.705-1.042-2.121-1.313-3.161-0.61c-1.042,0.705-1.314,2.12-0.61,3.161C21.601,30.918,27.288,30.918,35.895,30.918z"></path></g></svg>